<svg width="16" height="16" viewBox="0 0 16 16" fill="none" xmlns="http://www.w3.org/2000/svg">
<path d="M14.6667 8C14.6667 11.6819 11.6819 14.6667 8.00004 14.6667C4.31814 14.6667 1.33337 11.6819 1.33337 8C1.33337 4.3181 4.31814 1.33333 8.00004 1.33333C11.6819 1.33333 14.6667 4.3181 14.6667 8ZM10.1676 5.86192C9.90729 5.60157 9.48518 5.60157 9.22483 5.86192L7.99918 7.08757L6.77353 5.86192C6.51318 5.60157 6.09107 5.60157 5.83072 5.86192C5.57037 6.12227 5.57037 6.54438 5.83072 6.80473L7.05637 8.03038L5.83072 9.25603C5.57037 9.51638 5.57037 9.93849 5.83072 10.1988C6.09107 10.4592 6.51318 10.4592 6.77353 10.1988L7.99918 8.97319L9.22483 10.1988C9.48518 10.4592 9.90729 10.4592 10.1676 10.1988C10.428 9.93849 10.428 9.51638 10.1676 9.25603L8.94199 8.03038L10.1676 6.80473C10.428 6.54438 10.428 6.12227 10.1676 5.86192Z" fill="#93969D"/>
</svg>
