<svg width="18" height="18" viewBox="0 0 18 18" fill="none" xmlns="http://www.w3.org/2000/svg">
<path d="M3.83899 15.7502C3.42478 15.7502 3.08899 15.4145 3.08899 15.0002L3.08899 12.2752H2.71655C2.30234 12.2752 1.96655 11.9394 1.96655 11.5252C1.96655 11.111 2.30234 10.7752 2.71655 10.7752H3.08899L3.08899 7.22485H2.71655C2.30234 7.22485 1.96655 6.88907 1.96655 6.47485C1.96655 6.06064 2.30234 5.72486 2.71655 5.72486H3.08899L3.08899 3.00024C3.08899 2.58603 3.42477 2.25024 3.83899 2.25024H15.2838C15.698 2.25024 16.0338 2.58603 16.0338 3.00024V15.0002C16.0338 15.4145 15.698 15.7502 15.2838 15.7502H3.83899ZM4.58899 7.22485L4.58899 10.7752H5.24287C5.65708 10.7752 5.99287 11.111 5.99287 11.5252C5.99287 11.9394 5.65708 12.2752 5.24287 12.2752H4.58899V14.2502H14.5338V3.75024L4.58899 3.75024L4.58899 5.72486H5.24287C5.65708 5.72486 5.99287 6.06064 5.99287 6.47485C5.99287 6.88907 5.65708 7.22485 5.24287 7.22485H4.58899ZM12.2941 8.12898C12.7083 8.12898 13.0441 7.7932 13.0441 7.37898C13.0441 6.96477 12.7083 6.62898 12.2941 6.62898H8.0136C7.59938 6.62898 7.2636 6.96477 7.2636 7.37898C7.2636 7.7932 7.59938 8.12898 8.0136 8.12898H12.2941ZM13.0441 10.62C13.0441 11.0342 12.7083 11.37 12.2941 11.37H8.0136C7.59938 11.37 7.2636 11.0342 7.2636 10.62C7.2636 10.2057 7.59938 9.86995 8.0136 9.86995H12.2941C12.7083 9.86995 13.0441 10.2057 13.0441 10.62Z" fill="white"/>
</svg>
