<svg width="18" height="18" viewBox="0 0 18 18" fill="none" xmlns="http://www.w3.org/2000/svg">
<path fill-rule="evenodd" clip-rule="evenodd" d="M8.99951 2.24951C6.1 2.24951 3.74951 4.6 3.74951 7.49951C3.74951 9.68438 5.08444 11.5592 6.98567 12.3496H8.99951H11.0134C12.9146 11.5592 14.2495 9.68438 14.2495 7.49951C14.2495 4.6 11.899 2.24951 8.99951 2.24951ZM2.24951 7.49951C2.24951 3.77157 5.27157 0.749512 8.99951 0.749512C12.7274 0.749512 15.7495 3.77157 15.7495 7.49951C15.7495 10.2029 14.1606 12.5335 11.8679 13.6113L11.6506 16.2188V16.2188C11.602 16.802 11.1145 17.2503 10.5295 17.2503H7.4696C6.88466 17.2503 6.39707 16.802 6.3485 16.2188L6.34849 16.2187L6.13119 13.6113C3.83845 12.5335 2.24951 10.2029 2.24951 7.49951ZM8.99951 13.8496H10.3428L10.1845 15.7503H7.81466L7.65625 13.8496H8.99951ZM7.4998 6.37568C7.4998 5.96147 7.16402 5.62568 6.7498 5.62568C6.33559 5.62568 5.9998 5.96147 5.9998 6.37568V8.62568C5.9998 8.88562 6.13439 9.12702 6.35551 9.26367C6.57662 9.40033 6.85272 9.41275 7.08521 9.2965L8.9998 8.33921L10.9144 9.2965C11.1469 9.41275 11.423 9.40033 11.6441 9.26367C11.8652 9.12702 11.9998 8.88562 11.9998 8.62568V6.37568C11.9998 5.96147 11.664 5.62568 11.2498 5.62568C10.8356 5.62568 10.4998 5.96147 10.4998 6.37568V7.41216L9.33521 6.82986C9.12407 6.72429 8.87554 6.72429 8.66439 6.82986L7.4998 7.41216V6.37568Z" fill="white"/>
</svg>
