<svg width="24" height="24" viewBox="0 0 24 24" fill="none" xmlns="http://www.w3.org/2000/svg">
<path d="M7.8457 9.06445C8.53605 9.06445 9.0957 9.6241 9.0957 10.3145C9.0957 11.0048 8.53605 11.5645 7.8457 11.5645C7.15535 11.5645 6.5957 11.0048 6.5957 10.3145C6.5957 9.6241 7.15535 9.06445 7.8457 9.06445Z" fill="white"/>
<path d="M12 9.06458C12.6904 9.06458 13.25 9.62423 13.25 10.3146C13.25 11.0049 12.6904 11.5646 12 11.5646C11.3097 11.5646 10.75 11.0049 10.75 10.3146C10.75 9.62423 11.3097 9.06458 12 9.06458Z" fill="white"/>
<path d="M16.1543 9.06445C16.8446 9.06445 17.4043 9.6241 17.4043 10.3145C17.4043 11.0048 16.8446 11.5645 16.1543 11.5645C15.4639 11.5645 14.9043 11.0048 14.9043 10.3145C14.9043 9.6241 15.4639 9.06445 16.1543 9.06445Z" fill="white"/>
<path d="M2 4C2 3.44772 2.44772 3 3 3H21C21.5523 3 22 3.44772 22 4V16.7915C22 17.3438 21.5523 17.7915 21 17.7915H7.36733L3.58817 20.5399C3.28398 20.7612 2.88139 20.793 2.54622 20.6223C2.21105 20.4516 2 20.1073 2 19.7312V4ZM4 5V17.7674L6.45398 15.9827C6.6249 15.8584 6.83081 15.7915 7.04215 15.7915H20V5H4Z" fill="white"/>
</svg>
