<svg width="18" height="18" viewBox="0 0 18 18" fill="none" xmlns="http://www.w3.org/2000/svg">
<path d="M9.00033 17.3332C11.3015 17.3332 13.3848 16.4004 14.8929 14.8924C16.4009 13.3843 17.3337 11.301 17.3337 8.99984C17.3337 6.69867 16.4009 4.61534 14.8929 3.10728C13.3848 1.59925 11.3015 0.666504 9.00033 0.666504C6.69916 0.666504 4.61583 1.59925 3.10777 3.10728C1.59973 4.61534 0.666992 6.69867 0.666992 8.99984C0.666992 11.301 1.59973 13.3843 3.10777 14.8924C4.61583 16.4004 6.69916 17.3332 9.00033 17.3332ZM9.00033 13.9687C8.42503 13.9687 7.95866 13.5023 7.95866 12.927C7.95866 12.3518 8.42503 11.8854 9.00033 11.8854C9.57562 11.8854 10.042 12.3518 10.042 12.927C10.042 13.5023 9.57562 13.9687 9.00033 13.9687ZM9.83366 4.83317V10.2549C9.83366 10.7152 9.46056 11.0883 9.00033 11.0883C8.54009 11.0883 8.16699 10.7152 8.16699 10.2549V4.83317C8.16699 4.37293 8.54009 3.99984 9.00033 3.99984C9.46056 3.99984 9.83366 4.37293 9.83366 4.83317Z" fill="#0D53DE"/>
</svg>
