<svg width="24" height="24" viewBox="0 0 24 24" fill="none" xmlns="http://www.w3.org/2000/svg">
<path d="M3.19995 5.84019C3.19995 5.35419 3.59394 4.96021 4.07995 4.96021H19.92C20.406 4.96021 20.8 5.35419 20.8 5.84019V15.508C20.8001 15.5166 20.8001 15.5251 20.8 15.5337V18.16C20.8 18.646 20.406 19.04 19.92 19.04H4.07995C3.59394 19.04 3.19995 18.646 3.19995 18.16V5.84019ZM19.04 6.72018H4.95995V12.9556L6.5377 11.3779C6.86285 11.0527 7.38352 11.0327 7.73265 11.332L10.1513 13.405L12.6577 10.5406C12.9485 10.2083 13.4406 10.1429 13.8081 10.3879L19.04 13.8758V6.72018ZM4.95995 17.28H19.04V15.991L13.474 12.2804L10.9022 15.2195C10.5845 15.5827 10.0336 15.6222 9.66726 15.3082L7.20598 13.1986L4.95995 15.4446V17.28ZM8.91995 10.2401C8.19094 10.2401 7.59995 9.64915 7.59995 8.92014C7.59995 8.19114 8.19094 7.60016 8.91995 7.60016C9.64897 7.60016 10.24 8.19114 10.24 8.92014C10.24 9.64915 9.64897 10.2401 8.91995 10.2401Z" fill="#93969D"/>
</svg>
